<svg xmlns="http://www.w3.org/2000/svg" width="423" height="790" viewBox="0 0 423 790">
    <g fill="none" fill-rule="evenodd">
        <g>
            <g>
                <path fill="#FFFFFD" d="M22.207 412L23.091 412 23.975 408.312 22.025 408z" transform="translate(-294 -145) translate(296 147)"/>
                <path stroke="#FFFFFD" stroke-linecap="round" stroke-linejoin="round" stroke-width="3" d="M23.091 412L23.975 408.309 22.025 408 22.207 412z" transform="translate(-294 -145) translate(296 147)"/>
                <path stroke="#37464E" stroke-linecap="round" stroke-linejoin="round" stroke-width="4" d="M416.858 65.312L413.086 63.701 405.981 64.75 403.231 62.013 402.278 58.901 402.923 54.701 401.768 53.988 399.287 49.75 401.326 45.097 400.101 42.358 397.723 41.271 389.632 41.12 384.058 39.581 380.591 41.344 379.367 41.006 379.674 38.343 375.867 37.967 371.414 34.401 369.85 34.063 367.368 31.436 364.106 33.163 359.279 31.136 355.507 31.173 355.846 28.697 352.379 27.607 350.952 25.393 352.888 22.276 352.549 21.076 347.858 22.39 344.121 19.197 343.543 15.742 341.841 15.742 340.008 13.715 339.769 8.982 336.472 4.811 328.281 0 325.97 0.113 324.37 1.467 320.089 0.751 317.301 2.932 314.243 2.932 307.104 7.065 305.813 10.258 300.408 12.212 298.641 18.521 297.383 19.197 294.05 24.266 292.217 25.731 291.672 29.072 293.031 30.462 290.414 33.501 287.456 35.715 279.742 39.357 276.073 40.557 271.277 40.895 270.123 40.219 265.602 42.283 260.707 41.195 256.935 42.772 250.475 44.272 242.217 49.599 230.898 52.225 224.813 55.261 223.216 57.438 216.01 60.288 210.842 66.886 207.681 72.624 208.089 75.659 206.017 79.369 203.739 81.393 202.481 83.791 201.395 83.865 198.165 89.111 197.009 92.82 195.445 94.805 193.917 98.849 191.434 101.695 191.368 103.98 189.157 105.887 185.01 112.215 182.632 118.991 182.699 123.406 184.162 125.5 179.674 131.374 176.886 133.993 175.46 139.491 170.191 144.09 169.103 146.632 166.453 146.783 158.837 148.65 154.895 153.623 154.384 159.566 149.662 160.051 147.351 160.911 144.188 166.104 143.101 170.251 141.129 174.435 139.055 180.708 135.791 186.048 134.705 189.708 127.466 198.18 125.086 199.785 122.3 204.263 119.545 207.1 117.847 211.166 111.931 219.967 110.334 224.703 109.926 228.918 108.362 231.079 105.337 229.289 103.365 232.833 101.632 234.247 99.015 240.883 97.385 242.895 94.393 250.087 92.624 252.806 96.941 254.371 96.363 256.307 91.366 263.084 90.791 265.209 86.508 265.244 81.136 271.5 78.995 272.877 76.92 277.381 80.694 278.088 81.883 273.919 85.894 273.919 84.739 279.949 83.719 282.516 77.5 282.183 73.387 284.304 73.489 288.583 77.772 288.508 77.397 290.071 72.128 292.787 67.506 301.527 67.335 304.243 63.29 304.652 61.421 309.968 57.887 315.768 60.979 316.884 54.283 330.819 51.871 332.9 50.546 332.455 48.538 333.941 44.699 338.509 41.538 337.506 39.667 338.845 40.619 340.032 38.444 343.004 35.759 343.858 30.728 347.015 31.884 348.573 29.573 354.663 28.451 355.072 29.231 357.855 31.681 357.855 30.117 363.015 29.301 369.62 31.203 370.956 27.906 375.223 25.29 381.565 24.168 382.457 22.979 389.54 23.318 391.692 22.91 406.074 25.187 410.151 24.237 412.745 23.523 413.521 20.293 412.856 18.526 414.041 18.627 418.561 19.749 420.117 26.207 419.599 26.343 421.191 23.862 424.415 23.965 426.822 26.106 429.561 24.373 431.934 25.392 434.561 24.745 437.078 26.004 439.597 27.226 439.152 28.009 442.187 26.751 444.448 24.542 444.15 23.896 446.889 22.774 446.518 19.374 451.033 18.354 454.365 17.846 458.285 15.093 464.501 14.038 464.796 11.83 477.851 10.641 478.591 10.774 484.287 7.955 490.161 6.358 499.622 2.075 506.383 0.783 509.338 0 515.727 3.841 519.235 4.691 521.561 6.561 522.668 9.655 523.777 16.826 528.428 22.537 533.041 26.514 537.545 29.811 544.666 30.559 548.245 30.423 552.854 33.958 562.48 34.264 564.73 38.308 576.747 43.033 587.618 47.552 597.306 48.811 601.433 50.274 599.407 51.53 605.114 47.044 609.385 46.636 613.951 49.152 618.847 48.947 621.128 57.682 632.499 60.504 635.478 60.062 636.436 65.024 641.439 69.715 645.483 78.111 651.699 80.933 652.801 83.244 652.47 87.424 654.713 86.372 655.56 89.191 659.124 93.202 661.845 109.654 670.996 115.842 675.331 118.967 678.161 121.856 683.599 127.058 688.63 129.641 692.376 129.744 694.91 131.713 700.344 131.339 703.721 135.488 707.576 138.952 714.328 138.377 716.199 140.382 720.784 141.912 727.462 141.366 728.6 142.385 731.644 143.918 733.22 145.379 740.188 142.082 741.804 143.304 747.337 141.299 748.913 140.824 751.919 139.088 753.971 139.088 756.757 141.604 761.852 143.202 762.439 145.174 767.677 144.527 769.289 144.221 776.467 147.554 779.985 150.204 779.727 151.734 776.467 151.054 774.124 153.264 771.376 155.881 770.827 159.281 774.124 162.645 774.709 165.705 776.616 167.711 776.359 170.327 779.985 173.011 781.303 173.285 784.048 175.935 785 177.124 784.048 176.071 780.349 171.719 772.988 172.741 764.16 176.138 763.244 178.893 761.557 179.299 758.811 181.51 757.528 181.713 755.474 184.399 753.607 182.904 750.525 182.427 741.766 183.957 739.967 184.229 737.329 182.835 736.742 181.204 731.166 183.616 728.745 182.36 727.682 182.938 721.006 182.257 716.749 183.48 715.026 182.938 711.722 184.093 708.052 183.446 705.224 182.529 698.252 182.632 688.85 183.143 685.104 184.771 680.989 186.099 679.41 187.39 673.568 188.92 670.48 194.087 657.103 196.806 646.294 200.137 636.214 202.278 631.505 207.411 626.868 208.125 619.878 210.164 613.067 212.814 608.98 217.338 606.659 221.891 602.426 226.852 600.29 232.596 596.864 238.748 590.566 242.15 588.725 243.611 585.481 244.292 581.429 248.097 579.474 246.261 572.658 245.242 571.809 245.717 567.276 249.389 563.734 253.536 562.887 255.066 563.552 256.424 560.157 257.921 559.826 260.774 554.406 262.271 553.039 266.385 543.448 269.035 541.825 272.671 536.658 274.982 529.204 276.82 528.021 277.534 523.815 278.823 520.896 279.334 516.945 283.142 510.483 287.456 508.895 289.531 505.683 290.414 506.421 292.658 504.536 290.55 502.615 290.142 498.735 291.877 494.485 289.839 489.792 289.769 484.803 292.453 483.509 294.563 480.514 293.303 479.258 296.194 468.496 298.436 463.834 300.577 461.099 303.602 460.321 304.691 456.324 305.574 447 306.866 441.52 310.64 432.598 312.101 425.266 314.379 421.451 312.915 419.45 312.135 413.597 313.935 405.147 317.065 399.586 317.812 395.176 317.948 388.168 319.34 382.79 320.429 382.27 321.278 376.632 322.809 371.737 321.89 368.471 322.809 365.723 324.27 364.574 326.989 357.411 326.411 352.733 327.025 347.609 330.014 341.519 332.325 334.274 333.481 328.331 333.889 321.493 335.147 317.293 333.991 312.385 336.949 306.993 340.075 304.615 340.244 301.64 341.774 302.16 342.76 300.077 341.877 297.547 338.85 294.497 337.186 291.038 336.03 285.607 336.505 282.443 339.769 277.158 344.019 274.144 346.124 270.867 346.874 267.59 345.582 264.426 345.207 260.554 346.263 256.83 348.574 253.811 355.199 249.749 357.715 245.689 359.959 245.094 363.392 241.219 363.934 237.864 366.009 234.434 368.661 231.788 369.58 229.14 368.967 224.667 372.469 215.492 372.911 209.374 373.725 205.383 375.358 201.391 377.803 199.187 379.775 196.164 379.469 195.046 382.155 193.478 386.063 189.783 385.077 186.833 383.65 186.46 384.058 181.344 389.972 179.477 390.821 177.983 389.905 169.69 390.449 166.44 389.09 166.591 387.799 161.956 389.394 161.62 387.321 158.481 384.366 151.156 383.108 144.351 382.936 136.312 380.627 131.785 379.264 126.063 379.197 116.781 380.319 109.482 382.733 100.047 389.157 92.257 393.204 88.811 393.338 85.701 395.104 83.565 400.579 80.043 402.006 76.822 408.498 73.671 410.401 73.598 414.242 71.535 416.758 69.25 418.627 68.949 419 67.186z" transform="translate(-294 -145) translate(296 147)"/>
                <path fill="#FFF" d="M22.207 412L23.091 412 23.975 408.312 22.025 408z" transform="translate(-294 -145) translate(296 147)"/>
                <path stroke="#37464E" stroke-linecap="round" stroke-linejoin="round" stroke-width="3" d="M23.091 412L22.207 412 22.025 408 23.975 408.312z" transform="translate(-294 -145) translate(296 147)"/>
                <path stroke="#37464E" stroke-linecap="round" stroke-linejoin="round" stroke-width="3" d="M148.625 392.469L147.367 394.1 149 395.582 148.897 400.214 146.004 402.068 144.062 400.697 140.829 400.401 137.015 401.735 135.824 399.957 131.637 401.29 130.207 399.772 131.195 396.472 126.257 397.103 124.827 398.585 115.908 398.732 111.618 396.585 107.431 396.138 103.311 392.395 100.929 388.91 100.351 386.796 96.57 387.872 95.04 387.39 91.123 388.205 87.787 387.91 84.688 390.69 78.902 388.723 75.463 390.097 74.033 392.653 71.209 393.135 69.131 396.325 64.229 396.843 63.99 399.957 59.327 403.106 55.65 403.217 55.14 406.182 52.008 408.072 51.223 410.777 49.181 410.11 47.751 407.367 44.789 408.443 45.846 414.259 44.652 415.926 40.738 417 34.915 415.035 31.682 415.704 28.72 414.037 24.329 413.221 25.281 410.628 23 406.551 23.409 392.173 23.069 390.021 24.26 382.94 25.384 382.051 28.005 375.707 31.307 371.444 29.401 370.106 30.219 363.503 31.785 358.344 29.332 358.344 28.55 355.561 29.674 355.152 31.989 349.067 30.831 347.506 35.869 344.35 38.56 343.497 40.738 340.525 39.786 339.338 41.658 338 44.824 339.002 47.548 340.861 58.816 344.09 69.846 343.386 72.025 342.161 80.535 342.681 85.37 341.787 89.387 344.797 95.992 347.246 101.917 348.731 110.631 348.547 119.28 350.847 127.245 351.145 129.39 351.998 132.625 359.051 132.692 363.69 129.39 364.727 129.153 369.404 131.025 375.745 130.82 378.119 128.266 382.978 127.008 386.834 128.029 390.504 130.377 387.761 132.113 388.132 131.807 391.173 133.883 392.58 138.582 392.469 140.284 390.281 143.177 390.986 146.037 388.021 148.591 390.69zM265.663 42.089L265.495 43.782 267.384 45.511 268.735 45.058 269.711 46.865 274.369 47.878 277.336 49.945 278.857 49.945 280.678 54.305 285.335 54.08 287.866 55.32 287.563 56.634 289.791 57.574 289.824 62.497 292.656 65.239 289.587 65.727 290.53 69.71 283.614 74.929 278.113 73.652 274.873 74.59 275.381 77.258 275.011 81.388 272.446 83.903 274.335 87.431 272.816 89.046 274.639 90.734 273.423 92.835 276.156 94.824 278.011 94.599 278.756 97.564 280.576 99.141 278.789 100.304 280.408 102.556 279.026 105.518 284.491 108.106 288.81 105.968 290.836 106.082 293.5 107.919 293.77 110.28 295.223 110.318 297.854 113.394 298.328 117.368 300.622 119.469 295.56 123.93 295.088 125.131 297.584 131.615 300.757 138.21 305.817 140.458 305.58 141.881 307 145.666 302.781 145.777 300.217 149.524 300.992 150.985 298.698 154.729 296.067 161.396 292.893 161.995 290.836 164.802 287.563 166 284.389 164.24 282.503 162.182 281.522 158.812 282.941 155.703 281.353 155.03 280.137 152.408 280.408 147.428 277.507 146.452 277.305 144.318 275.381 141.656 272.951 140.008 269.948 141.208 269.036 140.346 270.723 134.911 268.834 132.363 270.759 126.703 269.441 124.83 264.314 122.992 260.769 120.444 260.973 118.569 258.003 116.845 257.631 114.595 252.604 116.357 251.691 113.321 249.634 114.595 248.757 112.194 242.548 109.795 243.088 108.781 237.959 106.006 239.917 102.328 238.767 97.415 235.191 97 234.518 98.014 228.782 96.138 228.915 93.399 225.137 94.412 223.549 93.174 220.918 92.986 218.387 91.222 218.759 88.144 218.083 85.179 213.9 82.063 210.018 83.453 207.453 82.101 206.577 83.529 203 83.678 204.249 81.275 206.51 79.248 208.567 75.53 208.162 72.487 211.3 66.74 216.431 60.129 223.584 57.274 225.17 55.095 231.209 52.05 242.448 49.42 250.646 44.083 257.057 42.579 260.804 41zM317.881 73.864L319 70.347 318.56 68.55 316.286 66.344 314.288 65.781 310.626 68.663 309.745 67.578 309.438 62.45 312.762 59.57 313.574 54.253 312.626 51.446 309.71 48.189 304.931 47.139 303 45.379 303.472 42.421 308.457 35.827 309.405 35.565 312.693 30.432 316.286 31.406 316.695 29.083 321.136 26.797 323.71 22.264 325.305 22 327.507 25.373 329.676 25.373 329.745 29.571 328.39 31.932 330.695 32.869 332.355 37.364 334.117 39.086 332.321 44.443 338.795 48.526 339.305 50.734 336.66 55.937 337.879 56.911 336.729 59.607 337.914 61.516 343.881 64.396 347 63.948 346.831 65.37 340.117 64.847 338.219 66.793 334.117 66.38 332.76 67.392 332.388 69.824 333.679 73.079 333.269 76.183 335.676 76.745 337.405 78.467 332.591 80 327.914 78.54 325.033 79.064 323.305 75.36 319.169 72.666zM125.384 201.187L129.283 204.253 131.115 208.403 133.215 209.19 137.252 214.423 139.896 216.666 140.541 218.348 143.592 220.552 148.511 221.935 155.36 227.915 159.802 229.708 164.582 230.305 170.246 236.133 175.4 236.505 179.063 235.162 185.334 235.797 189.031 233.406 187.845 225.934 191.948 224.027 196.39 224.887 199.646 226.195 201.747 225.636 203.816 227.093 206.563 226.569 209.275 231.203 212.8 234.527 215.106 235.05 216.566 234.079 217.211 231.613 222.737 228.4 223.789 229.857 225.45 229.407 228.503 226.794 231.18 226.868 231.961 224.252 235.386 220.104 241.05 219.843 242.134 217.003 245.692 215.02 247.185 211.507 249.322 211.208 251.153 215.506 254.578 214.347 255.085 211.319 256.952 209.377 257.427 205.487 260.478 203.954 262.411 204.328 270.007 203.094 272.584 201 274.754 202.72 274.754 211.021 276.992 212.966 280.586 212.255 282.587 213.153 284.452 218.012 286.081 218.31 287.946 216.365 298.016 214.572 299.033 216.815 300.152 216.403 301 218.758 298.899 220.142 297.575 222.795 296.932 226.979 297.439 228.623 295.031 231.873 291.202 231.911 290.623 234.863 285.978 238.635 286.929 244.349 283.097 245.022 280.079 246.925 280.043 249.09 278.076 251.63 275.363 249.874 268.752 248.794 267.532 250.325 264.819 250.173 262.445 248.344 261.664 246.515 259.868 246.776 257.188 251.891 255.798 252.526 252.001 250.325 249.626 252.04 247.221 251.706 244.032 254.281 241.014 251.182 239.623 253.535 236.879 254.018 234.267 257.939 227.858 257.641 225.788 258.946 223.449 262.64 218.126 265.628 216.635 267.53 215.582 266.298 209.749 266.559 208.156 267.829 205.477 273.946 203.883 275.55 200.289 276.522 197.374 275.775 194.93 273.984 191.27 277.529 188.557 278.723 183.334 276.595 182.555 280.96 180.588 283.161 179.502 282.49 180.485 280.325 178.554 276.522 175.365 276.446 174.655 274.804 172.721 274.731 170.923 276.484 169.263 281.744 169.432 287.075 164.752 288.679 164.006 291.252 159.971 298.074 157.19 300.311 157.021 301.54 151.8 304 148.782 301.578 146.136 301.391 143.423 302.434 137.557 300.384 132.708 296.546 130.336 297.626 126.842 294.757 125.858 291.589 126.265 287.71 124.129 284.168 123.553 279.841 115.143 278.536 110.26 277.23 106.666 274.321 104.732 271.262 105.173 269.061 101.41 260.178 96.73 257.826 97.306 255.885 93 254.319 94.763 251.592 97.747 244.387 99.374 242.369 101.986 235.721 103.715 234.302 105.683 230.753 108.7 232.546 110.26 230.379 110.668 226.157 112.261 221.412 118.16 212.591 119.856 208.517 122.602 205.674zM84.239 652.918L84.611 648.081 84 643.428 85.699 637.555 86.923 636.704 88.214 633.306 89.131 627.913 88.723 624.589 87.195 623.109 86.243 619.302 86.752 617.677 86.923 609.692 88.181 605.254 89.98 602.148 90.966 597.378 90.558 585.689 92.732 578.583 93.718 571.586 95.314 569.847 102.483 572.069 105.337 571.069 111.657 572.107 116.143 567.626 122.701 561.813 125.861 561.221 131.092 559 131.841 560.886 133.88 560.259 134.524 564.887 136.97 565.626 138.33 564.146 140.743 563.701 144.003 559.926 148.081 560.038 151.819 561.703 154.47 563.739 159.396 570.515 162.419 569.18 162.622 566.628 164.188 566.887 168.739 563.59 171.832 563.851 174.108 566.702 175.263 565.367 177.709 568.7 177.063 572.513 178.526 574.734 183.315 575.953 185.864 578.621 186 584.244 183.757 586.354 184.098 592.975 181.752 597.672 174.278 597.746 171.388 602.445 168.297 602.631 165.682 604.144 161.162 603.294 162.147 606.548 161.095 610.172 155.828 617.713 153.993 621.999 154.401 624.218 152.499 627.062 153.11 631.092 151.58 631.866 151.139 635.82 153.382 639.847 154.162 645.127 156.067 647.453 156.303 649.706 153.551 652.438 154.298 653.988 153.687 657.2 155.114 657.162 158.988 659.27 158.682 660.634 161.773 666.576 159.735 668.496 156.475 668.606 155.012 669.528 153.857 672.369 154.74 673.253 153.11 675.102 151.988 678.125 153.959 679.75 156.133 680.007 157.05 682.663 160.823 683.143 162.453 685.614 163.235 689.043 162.522 690.704 159.327 691.624 159.26 694.06 161.842 695.091 163.574 699 163.913 703.422 167.245 702.023 172.34 706.519 176.418 707.184 178.048 709.689 181.039 708.62 184.401 705.892 185.048 708.731 183.893 712.415 184.437 715.734 183.213 717.464 183.893 721.737 183.315 728.444 184.573 729.513 182.16 731.942 183.792 737.538 185.184 738.13 184.912 740.78 183.382 742.584 183.859 751.382 185.353 754.474 182.671 756.351 182.466 758.412 180.258 759.7 179.85 762.459 177.098 764.151 173.7 765.071 172.681 773.938 177.029 781.33 178.082 785.045 176.893 786 174.244 785.045 173.972 782.285 171.287 780.961 168.672 777.323 166.667 777.579 163.608 775.666 160.245 775.079 156.847 771.768 154.231 772.32 152.022 775.079 152.702 777.432 151.174 780.705 148.523 780.961 145.194 777.432 145.499 770.223 146.144 768.603 144.172 763.343 142.578 762.754 140.063 757.639 140.063 754.842 141.795 752.781 142.27 749.763 144.275 748.18 143.053 742.622 146.349 741.001 144.888 734.005 143.359 732.419 142.34 729.363 142.884 728.22 141.354 721.519 139.349 716.913 139.927 715.033 136.462 708.251 132.316 704.382 132.691 700.989 130.72 695.533 130.617 692.988 128.035 689.229 122.837 684.174 119.947 678.716 116.821 675.874 110.638 671.521 94.193 662.332 90.186 659.6 87.365 656.019 88.417 655.171z" transform="translate(-294 -145) translate(296 147)"/>
                <path stroke="#37464E" stroke-linecap="round" stroke-linejoin="round" stroke-width="3" d="M277.579 252.093L278.929 255.14 279 257.407 273.9 258.596 269.846 262.238 265.726 262.87 266.132 267.439 264.68 272.565 267.617 273.235 272.007 276.986 274.607 277.467 274.033 280.18 272.617 281.888 273.461 284.263 270.321 286.936 268.392 289.647 267.685 289.128 265.052 291.392 265.524 294.806 263.632 298.257 262.282 302.303 260.389 305.233 261.167 309.576 263.058 309.649 263.938 311.763 262.685 318.144 263.632 321.74 263.53 324.707 260.389 326.338 261.91 330.787 261.234 333.234 258.7 334.345 257.825 338.016 255.797 340.722 254.784 347.241 253.299 348.13 253.501 353.429 248.503 356.392 248.875 358.653 253.603 362.763 256.169 370.945 255.83 376.091 254.345 378.349 255.054 381.678 252.59 387.192 252.758 389.856 251.171 392.706 250.36 395.96 248.906 397.034 246.273 395.96 243.234 398.402 243.066 399.882 237.696 399.141 237.359 402.027 239.183 403.1 238.471 405.429 236.175 406.538 237.188 408.683 236.346 412.862 233.946 415.597 230.705 414.266 227.195 414.747 225.876 414.117 224.761 415.745 219.796 414.858 218.444 419.257 216.454 420.587 216.622 421.916 213.617 425.059 217.771 427.869 216.217 430.418 212.637 431.598 208.55 434 207.538 431.562 208.686 430.232 206.964 427.683 205.31 427.829 199.162 426.241 196.427 426.13 194.266 426.685 192.138 425.281 190.921 425.871 188.018 424.726 181.568 424.726 180.15 426.574 176.568 425.205 171.504 425.724 168.902 422.99 167.486 414.193 165.019 410.866 166.167 406.168 167.552 404.726 167.315 401.843 168.565 399.216 166.1 395.887 163.973 396.85 158.434 395.517 155.462 393.223 153.638 392.78 148.607 393.631 148.571 391.855 146.04 389.191 143.203 392.152 140.333 391.449 138.644 393.631 133.983 393.742 131.924 392.336 132.228 389.302 130.505 388.931 128.174 391.671 127.161 388.006 128.411 384.16 130.944 379.309 131.146 376.943 129.289 370.612 129.526 365.948 132.802 364.91 132.733 360.281 129.526 353.245 135.065 351.502 137.698 348.649 136.718 345.391 131.99 347.132 128.748 344.315 126.62 340.609 125 340.387 126.653 336.57 125.27 334.902 128.411 327.265 127.768 326.189 128.85 321.296 127.23 320.109 128.715 318.293 126.789 314.955 128.48 314.879 130.909 312.32 131.552 307.273 128.952 305.346 129.965 301.819 136.312 302.525 137.631 300.633 143.473 302.673 146.175 301.635 148.808 301.819 151.814 304.233 157.015 301.784 157.184 300.559 159.954 298.333 163.973 291.541 164.715 288.979 169.376 287.382 169.208 282.074 170.861 276.837 172.652 275.092 174.576 275.165 175.285 276.8 178.461 276.875 180.385 280.661 179.405 282.817 180.487 283.485 182.446 281.293 183.222 276.948 188.421 279.066 191.125 277.878 194.771 274.349 197.203 276.132 200.108 276.875 203.688 275.908 205.275 274.311 207.943 268.22 209.53 266.956 215.339 266.696 216.388 267.923 217.873 266.029 223.174 263.054 225.503 259.377 227.565 258.077 233.946 258.374 236.548 254.47 239.283 253.987 240.668 251.647 243.673 254.732 246.849 252.168 249.245 252.501 251.61 250.793 255.391 252.984 256.776 252.352 259.443 247.26 261.234 247 262.012 248.821 264.376 250.642 267.078 250.793 268.293 249.269 274.878 250.345zM260.313 204.026L257.246 205.538 256.744 209.42 254.865 211.352 254.334 214.373 250.897 215.508 249.091 211.201 246.948 211.486 245.43 214.988 241.852 216.944 240.746 219.776 235.073 220.001 231.613 224.124 230.817 226.73 228.13 226.639 225.058 229.233 223.391 229.671 222.347 228.206 216.79 231.383 216.127 233.841 214.66 234.802 212.353 234.264 208.842 230.92 206.155 226.272 203.4 226.777 201.338 225.308 199.229 225.856 195.976 224.527 191.531 223.638 187.409 225.517 188.55 232.99 184.832 235.354 178.552 234.68 174.873 236 169.712 235.593 164.078 229.733 159.292 229.106 154.853 227.285 148.032 221.265 143.114 219.852 140.07 217.628 139.437 215.945 136.802 213.685 132.794 208.429 130.692 207.632 128.886 203.472 125 200.384 127.388 198.792 134.678 190.353 135.79 186.698 139.085 181.373 141.196 175.104 143.194 170.926 144.309 166.783 147.501 161.6 149.817 160.757 154.544 160.3 155.09 154.354 159.062 149.399 166.685 147.578 169.335 147.444 170.439 144.907 175.734 140.336 177.196 134.84 179.998 132.236 182.642 133.039 185.815 131 187.926 135.697 192.024 137.558 195.078 137.952 196.19 139.495 199.735 137.645 200.185 141.28 198.435 144.076 200.676 144.466 200.832 146.565 205.014 151.158 207.834 150.801 207.341 153.569 210.971 154.341 211.843 156.293 214.754 157.622 216.879 160.367 218.823 158.92 221.188 160.919 223.157 166.322 221.514 168.406 220.468 172.513 218.794 173.886 222.506 177.686 222.046 180.565 219.625 181.97 220.64 187.66 223.701 187.045 226.275 188.107 231.664 185.002 234.444 185.805 236.185 184.583 237.264 185.899 241.266 186.785 243.143 185.636 244.973 186.172 248.005 184.772 252.787 186.075 251.755 187.862 255.137 190.351 257.183 194.476 260.059 196.063 261 197.94 260.026 201.259zM375.654 38.366L376 40.907 374.474 43.409 372.738 43.863 369.094 42.043 365.416 44.813 366.63 51.899 369.684 53.869 366.803 56.94 366.111 56.372 362.676 58 360.243 57.962 355.975 54.363 353.13 54.476 343.692 48.337 342.232 46.327 340.984 40.262 338 38.784 339.109 36.432 342.337 36.206 344.245 34.46 348.445 33.665 355.212 29 354.866 31.502 358.717 31.464 363.646 33.513 366.976 31.767 369.511 34.422 371.108 34.764z" transform="translate(-294 -145) translate(296 147)"/>
                <path stroke="#37464E" stroke-linecap="round" stroke-linejoin="round" stroke-width="3" d="M83.474 653.462L74.521 649 60 637.469 60 634.074 48.947 622.128 47.044 610.385 51.963 606.044 50.274 599.407 47.723 598.175 36.377 570.667 31.739 555.608 43.313 555.202 45.383 555.608 47.723 557.756 49.012 556.016 51.963 557.533 52.812 555.387 60.545 556.498 62.58 556.349 64.343 558.903 68.245 558.939 70.687 555.979 72.789 554.647 74.521 551.798 78.319 551.243 80.489 553.574 82.119 552.648 85.611 543.505 88.156 538.1 89.885 538.323 91.413 532.62 95.246 532.584 96.128 529.807 100.604 526.769 108.779 518.765 111.052 517.73 115.631 512.319 115.495 511.578 118.48 507.057 118.547 504.945 121.194 500.162 123.467 498.42 124.484 495.788 127.469 494.155 129.437 491.262 128.725 489.484 130.149 486.515 132.896 483.143 132.32 481.586 131.269 475.983 129.911 474.162 130.285 468.45 129.878 465.778 133.27 465.111 136.084 466.482 140.801 467.743 142.903 466.668 142.936 464.071 144.735 462.177 148.635 462.882 148.535 461.62 152.333 459.059 154.606 455.756 154.775 453.973 159.761 454.419 160.881 451.968 164.341 448.627 169.394 446.809 169.837 444.243 173.77 438.265 173.804 436.407 176.994 435.553 181.537 433.026 184.592 428.567 187.236 427.527 190.188 428.159 192.256 426.338 194.734 426.227 196.699 425 199.449 425.112 205.622 426.709 207.285 426.561 209.014 429.124 207.861 430.463 208.879 432.914 211.828 435.812 211.321 439.675 207.285 444.132 203.144 447.848 202.942 450.594 205.86 451.189 207.759 453.527 209.896 452.526 210.88 454.939 216 458.316 215.492 462.068 212.507 463.29 211.659 464.85 207.895 465.851 202.706 468.709 199.516 468.523 192.528 476.837 190.052 476.984 187.848 478.505 186.965 480.694 186.965 485.144 185.881 488.075 187.134 490.336 186.457 491.931 184.151 492.783 183.438 496.343 179.503 498.496 181.945 501.866 181.335 505.759 182.252 508.021 181.437 512.877 177.978 519.618 180.52 523.213 180.182 525.397 176.246 526.546 176.143 531.547 170.142 537.991 169.699 540.286 167.767 542.394 168.512 544.507 167.936 548.319 170.378 553.612 169.394 555.463 172.21 560.754 175.974 561.455 177.061 562.789 175.874 564.896 177.942 566.043 177.027 569.521 174.585 566.19 173.432 567.524 171.159 564.676 168.072 564.415 163.528 567.709 161.965 567.451 161.763 570 158.744 571.334 153.827 564.564 151.18 562.53 147.449 560.866 143.377 560.754 140.122 564.526 137.714 564.97 136.356 566.449 133.914 565.711 133.27 561.087 131.236 561.713 130.488 559.829 125.265 562.048 122.111 562.639 115.564 568.448 111.085 572.924 104.776 571.887 101.927 572.886 94.77 570.667 93.176 572.405 92.192 579.395 90.021 586.495 90.429 598.175 89.445 602.942 87.648 606.044 86.393 610.479 86.221 618.458 85.714 620.082 86.664 623.885 88.189 625.364 88.597 628.685 87.682 634.074 86.393 637.469 85.171 638.319 83.474 644.188 84.084 648.836zM369.404 229.924L366.36 230 363.283 227.982 356.726 227.047 353.38 225.368 351.453 225.48 350.914 223.912 348.784 224.584 346.282 221.894 343.036 221.783 339.318 216.888 337.324 217.862 337.02 222.754 333.675 226.564 333.065 229.924 324.311 227.982 323.601 226.228 320.999 224.509 319.985 224.958 316.975 223.426 311.329 224.172 308.66 222.006 304.299 220.4 301.326 218.084 300.481 215.731 299.365 216.142 298.352 213.9 288.311 215.693 286.452 217.634 284.831 217.338 282.969 212.482 280.977 211.584 277.392 212.295 275.163 210.351 275.163 202.053 273 200.334 274.522 196.82 277.122 194.277 279.083 190.463 281.55 189.977 284.524 187.174 284.93 184.555 287.093 184.444 288.582 181.451 290.913 179.954 289.9 177.523 289.496 173.706 291.388 170.751 293.11 169.778 291.219 165.438 293.28 162.63 296.457 162.031 299.095 155.368 301.393 151.622 300.614 150.164 303.183 146.418 307.411 146.307 310.08 146.456 314.171 143.835 316.704 144.098 319.342 142.936 320.795 138.889 326.543 136.943 328.435 134.995 330.023 135.518 331.545 133.383 331.949 128.962 330.429 127.35 332.255 123.266 331.41 119.855 334.788 118.318 338.205 117.942 338.238 114.831 342.428 114.606 342.735 113.631 345.605 114.343 347.362 112.693 348.986 113.595 351.386 113.107 351.251 111.081 360.308 103.957 362.744 104.632 366.766 103.619 368.49 101.519 369.774 101.668 371.431 99.568 371.094 96.005 377.412 92.028 378.834 92.89 381.605 92.405 386.27 87.675 383.364 83.66 383.734 80.845 384.952 79.456 387.858 78.667 390.123 79.344 393.673 78.781 398.744 75.251 403.136 74.65 405.368 73 409.357 73.073 410 74.127 408.106 74.2 401.65 77.353 400.23 80.582 394.786 84.112 393.029 86.25 392.896 89.363 388.872 92.817 382.483 100.619 380.083 110.07 378.969 117.381 379.036 126.675 380.389 132.409 382.687 136.943 382.856 144.995 384.107 151.812 387.047 159.149 389.11 162.293 387.521 162.63 388.806 167.27 390.157 167.121 389.615 170.377 390.527 178.683 389.684 180.179 383.801 182.048 383.397 187.174 384.817 187.548 385.798 190.501 381.911 194.202 379.24 195.774 379.542 196.894 377.583 199.922 375.149 202.129 373.526 206.126 372.716 210.126 372.277 216.254 368.796 225.442z" transform="translate(-294 -145) translate(296 147)"/>
                <path stroke="#37464E" stroke-linecap="round" stroke-linejoin="round" stroke-width="3" d="M211.69 466.163L212.536 464.611 215.512 463.391 216.018 459.651 210.912 456.287 209.933 453.882 207.802 454.88 205.909 452.548 203 451.954 203.202 449.217 207.33 445.516 211.353 441.073 211.859 437.221 208.919 434.335 213.011 431.927 216.595 430.742 218.148 428.187 213.99 425.371 217.001 422.222 216.83 420.888 218.825 419.554 220.177 415.146 225.148 416.035 226.264 414.405 227.585 415.035 231.1 414.554 234.347 415.886 236.748 413.145 237.593 408.958 236.579 406.808 238.878 405.695 239.588 403.36 237.762 402.286 238.099 399.394 243.476 400.134 243.645 398.651 246.69 396.206 249.326 397.282 250.78 396.206 251.592 392.942 253.181 390.087 253.012 387.417 255.48 381.89 254.77 378.551 256.259 376.288 256.596 371.13 254.027 362.928 249.293 358.808 248.92 356.543 253.924 353.572 253.723 348.263 255.209 347.372 256.224 340.835 258.254 338.123 259.133 334.446 261.67 333.33 262.344 330.877 260.824 326.42 263.969 324.783 264.071 321.811 263.123 318.205 264.375 311.811 263.496 309.692 261.601 309.616 260.824 305.265 262.717 302.328 264.071 298.273 265.964 294.814 265.491 291.39 268.13 289.12 268.838 289.642 270.766 286.926 273.911 284.247 273.065 281.863 274.486 280.151 275.06 277.435 272.457 276.95 268.059 273.19 265.118 272.521 266.572 267.381 266.168 262.801 270.291 262.17 274.35 258.519 279.457 257.325 279.388 255.053 278.036 251.998 279.996 249.466 280.031 247.305 283.041 245.404 286.862 244.733 285.915 239.03 290.546 235.266 291.123 232.32 294.945 232.284 297.346 229.041 296.838 227.398 297.479 223.222 298.799 220.575 300.894 219.196 303.87 221.508 308.233 223.111 310.903 225.275 316.551 224.528 319.56 226.057 320.574 225.61 323.178 227.324 323.89 229.076 332.647 231.015 333.255 227.66 336.604 223.856 336.908 218.972 338.903 218 342.622 222.887 345.869 222.998 348.372 225.684 350.503 225.012 351.042 226.58 352.971 226.466 356.317 228.145 362.877 229.076 365.955 231.091 369 231.015 368.086 233.663 365.447 236.309 363.383 239.739 362.844 243.094 359.428 246.969 357.196 247.565 354.693 251.627 348.102 255.687 345.802 258.704 344.753 262.43 345.126 266.303 346.411 269.466 345.665 272.743 343.57 276.021 339.342 279.035 336.098 284.32 335.623 287.484 336.772 292.915 338.428 296.375 341.439 299.425 342.318 301.955 341.337 304.038 339.815 303.518 339.646 306.493 336.537 308.871 333.595 314.265 334.744 319.172 333.492 323.372 333.086 330.21 331.939 336.153 329.638 343.399 326.662 349.488 326.054 354.613 326.628 359.291 323.923 366.454 322.47 367.606 321.555 370.351 322.47 373.617 320.947 378.515 320.102 384.153 319.019 384.671 317.632 390.05 317.499 397.057 316.755 401.47 313.642 407.031 311.851 415.479 312.627 421.333 314.083 423.334 311.817 427.149 310.364 434.481 307.117 435.371 305.595 433.112 303.229 433.372 300.151 432.372 298.764 434.63 297.177 434.891 294.268 438.001 292.339 442.739 290.142 445.811 291.698 450.625 294.945 451.661 290.582 457.655 290.109 460.133 288.078 460.763 287.57 463.019 285.171 466.461 285.475 472.49 281.552 476.408 282.024 477.702 280.133 481.29 280.944 483.175 278.849 484.58 278.951 486.355 276.345 493.6 274.046 493.489 272.728 496.704 274.79 499.512 273.334 502.8 273.809 506.902 272.422 509.045 269.65 508.972 265.76 510.006 263.192 512 261.499 510.595 262.076 508.196 258.323 504.243 256.055 504.908 254.433 502.469 250.443 501.322 250.578 498.885 247.773 494.227 247.533 491.126 246.013 487.98 242.835 486.17 239.826 487.057 238.643 488.462 235.225 488.167 232.995 483.14 228.632 483.102 225.217 480.699 222.511 480.957 218.894 473.34 218.825 470.307 217.609 467.755 213.923 465.351zM203.061 84.602L206.646 84.454 207.525 83.038 210.096 84.379 213.987 83 218.181 86.091 218.858 89.032 218.485 92.086 221.022 93.836 223.659 94.021 225.251 95.25 229.038 94.244 228.905 96.962 234.652 98.825 235.329 97.817 238.914 98.228 240.066 103.105 238.104 106.75 243.245 109.503 242.703 110.509 248.928 112.888 249.807 115.27 251.869 114.006 252.781 117.018 257.822 115.27 258.195 117.502 261.172 119.212 260.968 121.073 264.522 123.6 269.661 125.423 270.982 127.281 269.052 132.896 270.946 135.423 269.254 140.815 270.167 141.67 273.179 140.481 275.614 142.114 277.543 144.754 277.745 146.871 280.653 147.839 280.382 152.779 281.601 155.38 283.193 156.047 281.77 159.132 282.751 162.475 284.645 164.516 287.826 166.262 291.106 165.073 293 169.382 291.275 170.345 289.382 173.28 289.786 177.067 290.8 179.477 288.469 180.962 286.98 183.932 284.813 184.042 284.409 186.641 281.432 189.422 278.962 189.906 277.002 193.691 274.398 196.212 272.875 199.699 270.304 201.776 262.728 203 260.799 202.629 260.495 199.885 261.443 196.584 260.495 194.73 257.62 193.17 255.556 189.091 252.175 186.641 253.19 184.86 248.421 183.598 245.409 185.008 243.582 184.488 241.722 185.64 237.731 184.785 236.65 183.485 234.925 184.712 232.15 183.932 226.805 187.049 224.234 186.011 221.191 186.641 220.141 181 222.543 179.59 222.984 176.731 219.264 172.983 220.92 171.607 221.934 167.524 223.557 165.444 221.564 160.097 219.197 158.129 217.266 159.578 215.135 156.865 212.227 155.566 211.348 153.635 207.73 152.89 208.203 150.141 205.394 150.512 201.201 145.981 201.03 143.899 198.799 143.526 200.524 140.74 200.051 137.134 196.533 138.994 195.416 137.47 192.373 137.098 192.915 133.194 194.639 129.551 196.262 129.997 199.137 126.985 199.645 124.939 201.674 125.386 203.297 124.197 203.028 122.226 204.549 121.371 208.88 123.638 210.231 126.8 212.937 125.684 211.821 120.887 210.367 118.284 209.861 115.195 206.071 111.773 196.566 108.947 192 104.667 192.069 102.395 194.537 99.567 196.06 95.548 197.616 93.575 198.766 89.889 201.978 84.677z" transform="translate(-294 -145) translate(296 147)"/>
                <path stroke="#37464E" stroke-linecap="round" stroke-linejoin="round" stroke-width="3" d="M191.787 105L196.413 109.355 206.044 112.233 209.881 115.715 210.396 118.856 211.869 121.504 213 126.385 210.258 127.521 208.889 124.306 204.501 121.997 202.96 122.867 203.232 124.872 201.588 126.084 199.533 125.63 199.018 127.712 196.105 130.774 194.459 130.322 192.714 134.03 192.165 138 188.018 136.147 185.859 131.417 182.672 133.499 180 132.705 184.523 126.765 183.05 124.645 182.98 120.18 185.38 113.33 189.561 106.931zM78.53 426.882l3.635-.519.814 1.037 2.99-.147 2.209 4.932 2.784-1.224 3.362-3.855 1.735-.075 2.717 2.223 1.188-.147 2.954-5.043-1.663-3.447-2.887-.521-.985-3.078-2.04-.372-1.968 1.78-3.431-4.375-2.751.223-.408 1.93-3.262.74-1.188 1.52-1.732-1.112-2.038 3.004 1.052 4.56-1.088 1.966zm54.995 54.861l-5.366-1.11-3.906 1.555-2.684-1.444-2.243 1.11-1.765 2.146-2.751-1.407-2.21.742-2.817-2.333-3.229-.74-1.562-1.924 2.445-2.22.306-1.48-2.071-4.258-.067-3.22.883-1.038-.747-4.444 3.7-3.741-1.324-1.963-3.839-1.667-1.63.149-.918-1.892 1.768-.926-1.496-3.149-2.243-.147-2.104-2.299 3.159-1.925-1.937-1.78-2.277 1.854-1.29-2.446-7.44-3.52-1.63 1.557-4.755-1.558-5.74 2.3-6.693.48-3.362 3.556-4.79.076v2.332l-3.84.038-1.493 1.892.033 3.89-2.104.443-2.21-.926.306 2.704-2.276 2.186-3.942.963-3.6 7.149-3.531.926-3.329-2.15-1.665 2.37-2.04-3.147-4.755-2.259v-1.222L20 455.121l1.021-3.333 3.395-4.52 1.122.369.646-2.74 2.207.296 1.258-2.26-.783-3.039-1.222.443-1.257-2.52.644-2.52-1.018-2.631 1.732-2.373-2.14-2.744-.1-2.41 2.478-3.225-.136-1.595-6.454.52-1.121-1.56-.103-4.522 1.768-1.189 3.228.668.712-.779 4.382.817 2.957 1.67 3.225-.669 5.81 1.966 3.906-1.075 1.188-1.67-1.052-5.824 2.956-1.077 1.425 2.746 2.04.668.782-2.708 3.123-1.892.51-2.969 3.668-.111 4.655-3.154.238-3.116 4.892-.52 2.07-3.192 2.82-.483 1.428-2.561 3.43-1.373 5.775 1.967 3.092-2.784 3.328.296 3.906-.817 1.53.483 3.77-1.075.579 2.114 2.376 3.49 4.111 3.75 4.178.445 4.28 2.152 8.9-.149 1.427-1.484 4.924-.63-.983 3.302 1.427 1.523 4.178-1.338 1.188 1.78 3.803-1.335 3.228.296 1.938 1.376 2.887-1.856.102-4.64-1.632-1.485 1.258-1.634 5.06-.852 1.835.445 2.99 2.301 5.57 1.338 2.14-.966 2.48 3.34-1.255 2.633.236 2.896-1.391 1.446-1.157 4.712 2.481 3.338 1.425 8.829 2.617 2.744 5.094-.52 3.603 1.37 1.426-1.854h6.488l2.92 1.15 1.224-.593 2.14 1.41 2.174-.556-1.97 1.224-2.48.111-2.07 1.816-2.957-.63-2.65 1.038-3.057 4.449-4.552 2.521-3.193.85-.033 1.854-3.942 5.967-.441 2.56-5.06 1.813-3.465 3.334-1.122 2.446-4.993-.448-.17 1.78-2.276 3.297-3.805 2.555.102 1.26-3.906-.704-1.801 1.89-.036 2.59-2.104 1.073-4.722-1.258-2.82-1.368-3.398.663.408 2.668-.374 5.7 1.36 1.816 1.052 5.588z" transform="translate(-294 -145) translate(296 147)"/>
            </g>
        </g>
    </g>
</svg>
